<?xml version="1.0" encoding="UTF-8"?> <svg xmlns="http://www.w3.org/2000/svg" id="Capa_1" data-name="Capa 1" viewBox="0 0 32 32"><g id="Cleanser"><path d="M23,32H9a1,1,0,0,1-1-1V23a1,1,0,0,1,1-1H23a1,1,0,0,1,1,1v8A1,1,0,0,1,23,32ZM10,30H22V24H10Z"></path><path d="M23,24H9a1,1,0,0,1-1-.89l-1.56-14a1,1,0,1,1,2-.22L9.9,22H22.1L23.88,6H7A1,1,0,0,1,7,4H25a1,1,0,0,1,1,1v.12l-2,18A1,1,0,0,1,23,24Z"></path><path d="M26,6H6A1,1,0,0,1,5,5V1A1,1,0,0,1,6,0H26a1,1,0,0,1,1,1V5A1,1,0,0,1,26,6ZM7,4H25V2H7Z"></path><path d="M20,32H12a1,1,0,0,1-1-1,1.22,1.22,0,0,1,0-.27l1-4A1,1,0,0,1,13,26h6a1,1,0,0,1,1,.76l1,4A1,1,0,0,1,20.3,32H20Zm-6.72-2h5.44l-.5-2H13.78Z"></path><path d="M16,18a4,4,0,0,1-4-4c0-1.94,2.71-5.06,3.26-5.67a1,1,0,0,1,1.41-.07l.07.07C17.29,8.94,20,12.06,20,14A4,4,0,0,1,16,18Zm0-7.45c-1.06,1.32-2,2.81-2,3.45a2,2,0,0,0,4,0C18,13.38,17.06,11.88,16,10.55Z"></path></g></svg> 