<?xml version="1.0" encoding="UTF-8"?> <svg xmlns="http://www.w3.org/2000/svg" id="Capa_1" data-name="Capa 1" viewBox="0 0 32 32"><g id="Curling_Roll" data-name="Curling Roll"><path d="M6,14H4a1,1,0,0,1,0-2H6a1,1,0,0,1,0,2Z"></path><path d="M6,19H4a1,1,0,0,1,0-2H6a1,1,0,0,1,0,2Z"></path><path d="M12,14H10a1,1,0,0,1,0-2h2a1,1,0,0,1,0,2Z"></path><path d="M12,19H10a1,1,0,0,1,0-2h2a1,1,0,0,1,0,2Z"></path><path d="M19,14H16a1,1,0,0,1,0-2h3a1,1,0,0,1,0,2Z"></path><path d="M19,19H16a1,1,0,0,1,0-2h3a1,1,0,0,1,0,2Z"></path><path d="M25,25c-3.86,0-7-4-7-9s3.14-9,7-9c6.56,0,9.28,10.29,4.73,15.65a1,1,0,1,1-1.52-1.3C31.74,17.2,29.67,9,25,9c-2.76,0-5,3.14-5,7s2.24,7,5,7a1,1,0,0,1,0,2Z"></path><path d="M25,21c-1.71,0-3-2.15-3-5s1.29-5,3-5,3,2.15,3,5S26.71,21,25,21Zm0-8c-.25,0-1,1.06-1,3s.75,3,1,3,1-1.06,1-3S25.25,13,25,13Z"></path><path d="M25,25H6c-3.86,0-7-4-7-9S2.14,7,6,7H25a1,1,0,0,1,0,2c-2.76,0-5,3.14-5,7s2.24,7,5,7a1,1,0,0,1,0,2ZM6,9c-2.76,0-5,3.14-5,7s2.24,7,5,7H20.6c-3.47-3.61-3.47-10.39,0-14Z"></path><path d="M6,10A1,1,0,0,1,5,9V6A1,1,0,0,1,7,6V9A1,1,0,0,1,6,10Z"></path><path d="M6,27a1,1,0,0,1-1-1V23a1,1,0,0,1,2,0v3A1,1,0,0,1,6,27Z"></path><path d="M12,10a1,1,0,0,1-1-1V6a1,1,0,0,1,2,0V9A1,1,0,0,1,12,10Z"></path><path d="M12,27a1,1,0,0,1-1-1V23a1,1,0,0,1,2,0v3A1,1,0,0,1,12,27Z"></path><path d="M18,10a1,1,0,0,1-1-1V6a1,1,0,0,1,2,0V9A1,1,0,0,1,18,10Z"></path><path d="M18,27a1,1,0,0,1-1-1V23a1,1,0,0,1,2,0v3A1,1,0,0,1,18,27Z"></path></g></svg> 