<?xml version="1.0" encoding="UTF-8"?> <svg xmlns="http://www.w3.org/2000/svg" id="Capa_1" data-name="Capa 1" viewBox="0 0 32 32"><g id="Make_up_brushes" data-name="Make up brushes"><path d="M15,16c-.14,0,.27.07-5.2-1a1,1,0,0,1,.4-2l3.53.71L13,10.2a1,1,0,0,1,2-.4l1,5A1,1,0,0,1,15.22,16Z"></path><path d="M10.66,19A14.56,14.56,0,0,1,.29,14.71,1,1,0,0,1,0,14,14,14,0,0,1,14,0h0a1,1,0,0,1,.71.29A14.56,14.56,0,0,1,19,10.66c0,1.28.09,1.67-.29,2.05l-6,6C12.32,19.09,12,19,10.66,19ZM2,13.58A12.55,12.55,0,0,0,10.66,17h.93L17,11.59v-.93A12.55,12.55,0,0,0,13.58,2,12,12,0,0,0,2,13.58Z"></path><path d="M15,23.17c-1.51,0-2.18-.94-3.29-2.05a3,3,0,0,1,0-4.24l5.17-5.17a3,3,0,0,1,4.24,0l1.17,1.17a3,3,0,0,1,0,4.24l-5.17,5.17A3,3,0,0,1,15,23.17Zm3.29-10.05-5.17,5.17a1,1,0,0,0-.29.71c0,.52.2.62,1.46,1.88a1,1,0,0,0,1.41,0h0l5.17-5.17a1,1,0,0,0,0-1.41h0l-1.17-1.17a1,1,0,0,0-1.41,0Z"></path><path d="M26.91,32A5,5,0,0,1,23,30.1l-3.78-4.73a1,1,0,0,1,1.56-1.24l3.78,4.72a3.05,3.05,0,1,0,4.29-4.26l-7.78-6.22-3.36,3.37a1,1,0,1,1-1.42-1.42l4-4a1,1,0,0,1,1.33-.07L30.1,23a5.05,5.05,0,0,1-3.19,9Z"></path><path d="M27,28a1,1,0,1,1,1-1A1,1,0,0,1,27,28Z"></path></g></svg> 