<?xml version="1.0" encoding="UTF-8"?> <svg xmlns="http://www.w3.org/2000/svg" id="Capa_1" data-name="Capa 1" viewBox="0 0 32 32"><g id="Powder"><path d="M16,26A13,13,0,1,1,28.26,8.67a1,1,0,0,1-1.89.66A11,11,0,1,0,27,13a1,1,0,0,1,2,0A13,13,0,0,1,16,26Z"></path><path d="M16,22a9,9,0,1,1,9-9A9,9,0,0,1,16,22ZM16,6a7,7,0,1,0,7,7A7,7,0,0,0,16,6Z"></path><path d="M25,32H7a4,4,0,0,1-4-4V25a1,1,0,0,1,1-1H28a1,1,0,0,1,1,1v3A4,4,0,0,1,25,32ZM5,26v2a2,2,0,0,0,2,2H25a2,2,0,0,0,2-2V26Z"></path><path d="M16,28a1,1,0,0,1-1-1V25a1,1,0,0,1,2,0v2A1,1,0,0,1,16,28Z"></path></g></svg> 